<svg width="120" height="120" viewBox="0 0 120 120" fill="none" xmlns="http://www.w3.org/2000/svg">
<g clip-path="url(#clip0_3694_36170)">
<mask id="mask0_3694_36170" style="mask-type:luminance" maskUnits="userSpaceOnUse" x="0" y="0" width="120" height="120">
<path d="M95.625 0H24.375C10.9131 0 0 10.9131 0 24.375V95.625C0 109.087 10.9131 120 24.375 120H95.625C109.087 120 120 109.087 120 95.625V24.375C120 10.9131 109.087 0 95.625 0Z" fill="white"/>
</mask>
<g mask="url(#mask0_3694_36170)">
<path d="M120 0H0V120H120V0Z" fill="#4945FF"/>
<path fill-rule="evenodd" clip-rule="evenodd" d="M59.3385 16.875H25.9388V33.9056H42.9694V50.9362H60V17.5364C60 17.1711 59.7037 16.875 59.3385 16.875Z" fill="white"/>
<path d="M42.9692 33.9056H42.3079V34.5671H42.9692V33.9056Z" fill="white"/>
<path d="M25.9388 33.9056H42.3079C42.6731 33.9056 42.9694 34.2019 42.9694 34.5671V50.9362H26.6001C26.2348 50.9362 25.9388 50.6402 25.9388 50.2749V33.9056Z" fill="#9593FF"/>
<path d="M42.9694 50.9362H60L43.5339 67.4025C43.3254 67.6108 42.9694 67.4631 42.9694 67.1687V50.9362Z" fill="#9593FF"/>
<path d="M25.9387 33.9056H9.70635C9.41169 33.9056 9.26421 33.5496 9.47254 33.3412L25.9387 16.875V33.9056Z" fill="#9593FF"/>
<path d="M92.7821 62.5403C97.7927 62.5403 101.855 58.4784 101.855 53.4677C101.855 48.4571 97.7927 44.3951 92.7821 44.3951C87.7714 44.3951 83.7096 48.4571 83.7096 53.4677C83.7096 58.4784 87.7714 62.5403 92.7821 62.5403Z" fill="#BC463D"/>
<path d="M86.7339 120H35.3226L61.0283 94.2943L86.7339 120Z" fill="#4A9BF6"/>
<path d="M120 35.3226V110.927C120 113.334 119.044 115.641 117.343 117.343C115.641 119.044 113.333 120 110.927 120H104.879L70.1006 85.2218L81.6077 73.7147C85.0901 78.2567 88.8206 82.6029 92.7821 86.7339C92.7821 86.7339 113.951 65.1563 113.951 53.4677C113.953 50.0831 113.139 46.7479 111.577 43.7449L120 35.3226Z" fill="#D3D9F2"/>
<path d="M129.375 27.1875L111.578 43.7449C109.572 39.8496 106.4 36.6776 102.505 34.6723L120 17.8125L129.375 27.1875Z" fill="#FFDF64"/>
<path d="M104.879 120H86.7338L61.0281 94.2943L70.1006 85.2217L104.879 120Z" fill="#F7F7FF"/>
<path d="M81.6079 73.7147L70.1008 85.2217L61.0283 94.2943L35.3226 120H26.25H16.875L26.25 110.927L74.4707 62.7066C76.5306 66.5734 78.9184 70.2562 81.6079 73.7147Z" fill="#FFDF64"/>
<path d="M111.577 43.7449C113.139 46.7479 113.953 50.0831 113.951 53.4677C113.951 65.1563 92.7821 86.7339 92.7821 86.7339C88.8206 82.6029 85.0901 78.2567 81.6077 73.7147C78.9182 70.2563 76.5304 66.5734 74.4707 62.7066C72.8254 59.8854 71.8477 56.7251 71.6128 53.4677C71.6167 48.7268 73.212 44.1242 76.143 40.3978C79.0742 36.6714 83.1712 34.0367 87.7779 32.916C92.3846 31.7953 97.2341 32.2534 101.549 34.2169C105.865 36.1804 109.396 39.5357 111.577 43.7449ZM101.855 53.4677C101.855 51.6733 101.323 49.9193 100.326 48.4273C99.3289 46.9354 97.9119 45.7725 96.254 45.0857C94.5962 44.3991 92.772 44.2194 91.0121 44.5695C89.2522 44.9196 87.6356 45.7836 86.3668 47.0524C85.098 48.3214 84.234 49.9378 83.8839 51.6977C83.5339 53.4578 83.7135 55.2819 84.4001 56.9396C85.0869 58.5975 86.2496 60.0144 87.7417 61.0114C89.2337 62.0083 90.9877 62.5403 92.7821 62.5403C95.1883 62.5403 97.496 61.5844 99.1974 59.883C100.899 58.1816 101.855 55.8739 101.855 53.4677Z" fill="#ED5748"/>
<path d="M92.7821 50.4435C94.6566 50.4457 96.4841 51.0283 98.0141 52.1113C99.5439 53.1945 100.701 54.7247 101.325 56.4919C101.815 55.1227 101.968 53.6559 101.772 52.2152C101.576 50.7744 101.036 49.4017 100.199 48.2132C99.3613 47.0244 98.2504 46.0545 96.9596 45.3849C95.6689 44.7156 94.2362 44.3661 92.7821 44.3661C91.3281 44.3661 89.8954 44.7156 88.6046 45.3849C87.3139 46.0545 86.2029 47.0244 85.3654 48.2132C84.528 49.4017 83.9886 50.7744 83.7924 52.2152C83.5963 53.6559 83.7493 55.1227 84.2387 56.4919C84.8636 54.7247 86.0203 53.1945 87.5501 52.1113C89.0799 51.0283 90.9077 50.4457 92.7821 50.4435Z" fill="#91323C" fill-opacity="0.6"/>
</g>
</g>
<defs>
<clipPath id="clip0_3694_36170">
<rect width="120" height="120" fill="white"/>
</clipPath>
</defs>
</svg>
